<svg width="229" height="50" viewBox="0 0 229 50" fill="none" xmlns="http://www.w3.org/2000/svg">
<rect width="50" height="50" rx="7" fill="#0056FF"/>
<path d="M35.7608 11.0449C37.3043 9.80054 39.5522 10.8091 39.7582 12.8385L41.9759 34.684C42.2779 37.6596 39.6961 40.0443 36.9367 39.3915L36.8053 39.3582L25.3731 36.2575C25.1289 36.1913 24.8713 36.1913 24.627 36.2575L13.1948 39.3582L13.0634 39.3915C10.3478 40.0339 7.80408 37.7345 8.01192 34.8253L8.02425 34.684L10.2419 12.8385C10.448 10.8091 12.6958 9.80054 14.2393 11.0449L23.4805 18.4954C24.3483 19.1951 25.5461 19.217 26.4346 18.561L26.5196 18.4954L35.7608 11.0449ZM29.0522 21.9453C26.6634 23.8712 23.3368 23.8712 20.948 21.9453L16.0966 18.0339C15.2214 17.3282 13.9076 17.8715 13.7945 18.9858L12.3612 33.1054C12.2614 34.0883 13.1847 34.8649 14.1437 34.6048L20.6143 32.8498C20.9853 32.7492 21.2992 32.503 21.4839 32.1678L23.7574 28.0412C24.2949 27.0656 25.7052 27.0656 26.2427 28.0413L28.5161 32.1678C28.7007 32.503 29.0147 32.7492 29.3857 32.8498L35.8564 34.6048C36.8154 34.8649 37.7387 34.0883 37.6389 33.1054L36.2055 18.9858C36.0924 17.8715 34.7786 17.3282 33.9034 18.0339L29.0522 21.9453Z" fill="white"/>
<path d="M71.476 28.52H101.644V32.3H71.476V28.52ZM84.04 30.428H88.828V42.704H84.04V30.428ZM74.896 10.628H79.648V14.408H93.364V10.628H98.08V25.352H74.896V10.628ZM79.648 18.152V21.572H93.364V18.152H79.648ZM115.177 11.276H119.317V13.688C119.317 15.128 119.113 16.532 118.705 17.9C118.321 19.244 117.745 20.516 116.977 21.716C116.209 22.916 115.261 24.008 114.133 24.992C113.029 25.952 111.757 26.78 110.317 27.476C108.877 28.172 107.293 28.688 105.565 29.024L103.513 25.028C105.001 24.764 106.357 24.368 107.581 23.84C108.829 23.288 109.921 22.628 110.857 21.86C111.793 21.092 112.585 20.264 113.233 19.376C113.881 18.464 114.361 17.528 114.673 16.568C115.009 15.584 115.177 14.624 115.177 13.688V11.276ZM116.113 11.276H120.289V13.688C120.289 14.648 120.445 15.62 120.757 16.604C121.093 17.588 121.573 18.536 122.197 19.448C122.845 20.336 123.637 21.152 124.573 21.896C125.509 22.64 126.589 23.288 127.813 23.84C129.037 24.368 130.417 24.764 131.953 25.028L129.901 29.024C128.173 28.688 126.589 28.172 125.149 27.476C123.709 26.78 122.425 25.952 121.297 24.992C120.193 24.032 119.245 22.952 118.453 21.752C117.685 20.552 117.097 19.268 116.689 17.9C116.305 16.532 116.113 15.128 116.113 13.688V11.276ZM102.793 34.712H132.997V38.636H102.793V34.712ZM135.046 12.752H148.186V34.352H135.046V12.752ZM143.758 16.496H139.51V30.644H143.758V16.496ZM158.158 9.332H162.73V42.668H158.158V9.332ZM145.774 21.464H153.262V25.316H145.774V21.464ZM151.39 9.872H155.854V41.192H151.39V9.872ZM188.288 9.296H193.076V42.74H188.288V9.296ZM175.112 11.636C176.816 11.636 178.328 12.128 179.648 13.112C180.968 14.072 182 15.452 182.744 17.252C183.512 19.028 183.896 21.128 183.896 23.552C183.896 26 183.512 28.124 182.744 29.924C182 31.7 180.968 33.08 179.648 34.064C178.328 35.024 176.816 35.504 175.112 35.504C173.432 35.504 171.932 35.024 170.612 34.064C169.292 33.08 168.248 31.7 167.48 29.924C166.736 28.124 166.364 26 166.364 23.552C166.364 21.128 166.736 19.028 167.48 17.252C168.248 15.452 169.292 14.072 170.612 13.112C171.932 12.128 173.432 11.636 175.112 11.636ZM175.112 15.992C174.296 15.992 173.576 16.28 172.952 16.856C172.328 17.432 171.836 18.284 171.476 19.412C171.14 20.516 170.972 21.896 170.972 23.552C170.972 25.184 171.14 26.576 171.476 27.728C171.836 28.856 172.328 29.708 172.952 30.284C173.576 30.86 174.296 31.148 175.112 31.148C175.952 31.148 176.684 30.86 177.308 30.284C177.932 29.708 178.412 28.856 178.748 27.728C179.108 26.576 179.288 25.184 179.288 23.552C179.288 21.896 179.108 20.516 178.748 19.412C178.412 18.284 177.932 17.432 177.308 16.856C176.684 16.28 175.952 15.992 175.112 15.992ZM200.273 26.504H223.709V30.284H200.273V26.504ZM196.745 35H226.949V38.888H196.745V35ZM200.273 11.78H223.457V15.596H205.133V27.548H200.273V11.78ZM203.657 19.124H222.701V22.832H203.657V19.124Z" fill="#0056FF"/>
</svg>
