<svg width="229" height="50" viewBox="0 0 229 50" fill="none" xmlns="http://www.w3.org/2000/svg">
<rect width="50" height="50" rx="7" fill="#0056FF"/>
<path d="M9.15983 14.0219C10.0297 9.18065 16.0189 7.31068 19.518 10.7881L23.3766 14.6229C24.2454 15.4862 25.6372 15.5133 26.5385 14.7039L26.6238 14.6229L30.4824 10.7881C33.9814 7.31067 39.9707 9.18065 40.8405 14.0219L44.4001 33.8334C45.264 38.6417 40.3634 42.4511 35.8756 40.46L25.0002 35.6349L14.1248 40.46L13.914 40.5492C9.55532 42.3037 4.89964 38.6845 5.56359 34.0578L5.60022 33.8334L9.15983 14.0219ZM35.0414 14.3659C34.8859 14.3174 34.7405 14.3163 34.628 14.3414C34.5351 14.3622 34.4166 14.4096 34.2715 14.5539L30.4129 18.3879C27.4236 21.3587 22.5768 21.3587 19.5875 18.3879L15.7289 14.5539C15.5837 14.4096 15.4652 14.3622 15.3723 14.3414C15.2599 14.3163 15.1145 14.3174 14.959 14.3659C14.8033 14.4145 14.6832 14.4961 14.6054 14.5806C14.5411 14.6504 14.4703 14.7569 14.4342 14.958L10.8746 34.7695C10.839 34.9678 10.8672 35.0915 10.903 35.1795C10.9462 35.2855 11.0293 35.4031 11.1564 35.502C11.2837 35.6009 11.4184 35.653 11.5324 35.6691C11.6271 35.6825 11.7551 35.6801 11.9405 35.5978L20.335 31.8729L23.2708 26.8202C24.0418 25.4932 25.9585 25.4933 26.7294 26.8204L29.6646 31.8729L38.0598 35.5978C38.2453 35.6801 38.3732 35.6825 38.468 35.6691C38.5819 35.653 38.7167 35.6009 38.844 35.502C38.9711 35.403 39.0542 35.2855 39.0974 35.1795C39.1332 35.0915 39.1614 34.9678 39.1258 34.7695L35.5661 14.958C35.53 14.7569 35.4593 14.6504 35.395 14.5806C35.3171 14.4961 35.197 14.4145 35.0414 14.3659Z" fill="white"/>
<path d="M71.476 28.52H101.644V32.3H71.476V28.52ZM84.04 30.428H88.828V42.704H84.04V30.428ZM74.896 10.628H79.648V14.408H93.364V10.628H98.08V25.352H74.896V10.628ZM79.648 18.152V21.572H93.364V18.152H79.648ZM115.177 11.276H119.317V13.688C119.317 15.128 119.113 16.532 118.705 17.9C118.321 19.244 117.745 20.516 116.977 21.716C116.209 22.916 115.261 24.008 114.133 24.992C113.029 25.952 111.757 26.78 110.317 27.476C108.877 28.172 107.293 28.688 105.565 29.024L103.513 25.028C105.001 24.764 106.357 24.368 107.581 23.84C108.829 23.288 109.921 22.628 110.857 21.86C111.793 21.092 112.585 20.264 113.233 19.376C113.881 18.464 114.361 17.528 114.673 16.568C115.009 15.584 115.177 14.624 115.177 13.688V11.276ZM116.113 11.276H120.289V13.688C120.289 14.648 120.445 15.62 120.757 16.604C121.093 17.588 121.573 18.536 122.197 19.448C122.845 20.336 123.637 21.152 124.573 21.896C125.509 22.64 126.589 23.288 127.813 23.84C129.037 24.368 130.417 24.764 131.953 25.028L129.901 29.024C128.173 28.688 126.589 28.172 125.149 27.476C123.709 26.78 122.425 25.952 121.297 24.992C120.193 24.032 119.245 22.952 118.453 21.752C117.685 20.552 117.097 19.268 116.689 17.9C116.305 16.532 116.113 15.128 116.113 13.688V11.276ZM102.793 34.712H132.997V38.636H102.793V34.712ZM135.046 12.752H148.186V34.352H135.046V12.752ZM143.758 16.496H139.51V30.644H143.758V16.496ZM158.158 9.332H162.73V42.668H158.158V9.332ZM145.774 21.464H153.262V25.316H145.774V21.464ZM151.39 9.872H155.854V41.192H151.39V9.872ZM188.288 9.296H193.076V42.74H188.288V9.296ZM175.112 11.636C176.816 11.636 178.328 12.128 179.648 13.112C180.968 14.072 182 15.452 182.744 17.252C183.512 19.028 183.896 21.128 183.896 23.552C183.896 26 183.512 28.124 182.744 29.924C182 31.7 180.968 33.08 179.648 34.064C178.328 35.024 176.816 35.504 175.112 35.504C173.432 35.504 171.932 35.024 170.612 34.064C169.292 33.08 168.248 31.7 167.48 29.924C166.736 28.124 166.364 26 166.364 23.552C166.364 21.128 166.736 19.028 167.48 17.252C168.248 15.452 169.292 14.072 170.612 13.112C171.932 12.128 173.432 11.636 175.112 11.636ZM175.112 15.992C174.296 15.992 173.576 16.28 172.952 16.856C172.328 17.432 171.836 18.284 171.476 19.412C171.14 20.516 170.972 21.896 170.972 23.552C170.972 25.184 171.14 26.576 171.476 27.728C171.836 28.856 172.328 29.708 172.952 30.284C173.576 30.86 174.296 31.148 175.112 31.148C175.952 31.148 176.684 30.86 177.308 30.284C177.932 29.708 178.412 28.856 178.748 27.728C179.108 26.576 179.288 25.184 179.288 23.552C179.288 21.896 179.108 20.516 178.748 19.412C178.412 18.284 177.932 17.432 177.308 16.856C176.684 16.28 175.952 15.992 175.112 15.992ZM200.273 26.504H223.709V30.284H200.273V26.504ZM196.745 35H226.949V38.888H196.745V35ZM200.273 11.78H223.457V15.596H205.133V27.548H200.273V11.78ZM203.657 19.124H222.701V22.832H203.657V19.124Z" fill="#0056FF"/>
</svg>
